<svg width="48" height="48" viewBox="0 0 48 48" fill="none" xmlns="http://www.w3.org/2000/svg">
<path d="M45.6493 20.1022C47.8028 32.058 39.8565 43.4958 27.9007 45.6493C15.9449 47.8028 4.50709 39.8565 2.3536 27.9007C0.200114 15.9449 8.14645 4.50709 20.1022 2.3536C32.058 0.200114 43.4958 8.14645 45.6493 20.1022Z" fill="url(#paint0_linear_1807_2754)"/>
<path d="M10.6956 30.9441C10.222 31.6237 10.3889 32.5587 11.0686 33.0324C11.7482 33.5061 12.6832 33.3391 13.1569 32.6594L10.6956 30.9441ZM18.2053 22.7924L18.9035 21.4648L17.7317 20.8485L16.9747 21.9347L18.2053 22.7924ZM25.3399 26.5446L24.6417 27.8722L25.8551 28.5102L26.5995 27.3591L25.3399 26.5446ZM34.5514 15.063L35.366 13.8034L32.8468 12.1743L32.0323 13.4339L34.5514 15.063ZM24.3783 14.3335L22.9248 14.7039L23.6655 17.611L25.1191 17.2407L24.3783 14.3335ZM33.439 13.5727L34.8926 13.2024L34.5222 11.7488L33.0687 12.1192L33.439 13.5727ZM34.2762 22.9331L34.6466 24.3866L37.5537 23.6459L37.1833 22.1923L34.2762 22.9331ZM44.1731 20.3681C46.1797 31.5086 38.7753 42.1665 27.6348 44.1731L28.1666 47.1256C40.9377 44.8252 49.4259 32.6074 47.1256 19.8363L44.1731 20.3681ZM27.6348 44.1731C16.4943 46.1797 5.83648 38.7753 3.82984 27.6348L0.877356 28.1666C3.1777 40.9377 15.3955 49.4259 28.1666 47.1256L27.6348 44.1731ZM3.82984 27.6348C1.82321 16.4943 9.22766 5.83648 20.3681 3.82984L19.8363 0.877356C7.06524 3.1777 -1.42298 15.3955 0.877356 28.1666L3.82984 27.6348ZM20.3681 3.82984C31.5086 1.82321 42.1665 9.22766 44.1731 20.3681L47.1256 19.8363C44.8252 7.06524 32.6074 -1.42298 19.8363 0.877356L20.3681 3.82984ZM13.1569 32.6594L19.4359 23.6501L16.9747 21.9347L10.6956 30.9441L13.1569 32.6594ZM17.5071 24.12L24.6417 27.8722L26.0381 25.217L18.9035 21.4648L17.5071 24.12ZM26.5995 27.3591L34.5514 15.063L32.0323 13.4339L24.0804 25.73L26.5995 27.3591ZM25.1191 17.2407L33.8094 15.0263L33.0687 12.1192L24.3783 14.3335L25.1191 17.2407ZM31.9855 13.9431L34.2762 22.9331L37.1833 22.1923L34.8926 13.2024L31.9855 13.9431Z" fill="white"/>
<defs>
<linearGradient id="paint0_linear_1807_2754" x1="19.6485" y1="2.00147" x2="4.36483" y2="41.2398" gradientUnits="userSpaceOnUse">
<stop stop-color="#FA00FF"/>
<stop offset="1" stop-color="#9105FF"/>
</linearGradient>
</defs>
</svg>
