<svg width="372" height="48" viewBox="0 0 372 48" fill="none" xmlns="http://www.w3.org/2000/svg">
<path d="M65.8403 35V19.791H71.0835V16.6807H56.9917V19.791H62.2349V35H65.8403ZM82.6972 28.2588L85.9218 35H89.9843L86.3153 27.6621C88.3085 26.875 89.5653 24.8945 89.5653 22.5205C89.5653 18.8896 87.1278 16.6807 83.1415 16.6807H76.4892V35H80.0819V28.2588H82.6972ZM80.0819 19.626H82.6718C84.703 19.626 85.8964 20.7178 85.8964 22.5332C85.8964 24.3867 84.6776 25.4912 82.6337 25.4912H80.0819V19.626ZM105.115 35H109.012L103.515 16.6807H99.2493L93.7522 35H97.3577L98.5257 30.5186H103.972L105.115 35ZM101.179 20.2734H101.344L103.248 27.7002H99.2493L101.179 20.2734ZM120.461 32.1309C118.188 32.1309 117.02 30.6201 117.02 27.7129V23.9678C117.02 21.0732 118.188 19.5498 120.41 19.5498C122.276 19.5498 123.52 20.9717 123.558 23.168H127.215C127.189 18.8389 124.688 16.3125 120.473 16.3125C115.941 16.3125 113.275 19.1436 113.275 23.9678V27.7129C113.275 32.5371 115.941 35.3682 120.473 35.3682C124.637 35.3682 127.227 32.8291 127.227 28.6777H123.571C123.533 30.8105 122.352 32.1309 120.461 32.1309ZM136.124 35V29.4268L137.736 27.3701L142.738 35H146.941L140.225 24.7676L146.534 16.6807H142.726L136.315 25.0215H136.124V16.6807H132.696V35H136.124ZM162.998 35V31.9023H159.202V19.7783H162.998V16.6807H151.8V19.7783H155.596V31.9023H151.8V35H162.998ZM172.77 35V22.749H172.986L179.296 35H182.495V16.6807H179.372V28.8555H179.156L172.859 16.6807H169.647V35H172.77ZM198.133 28.9951C198.133 30.9629 196.965 32.1309 195.035 32.1309C192.763 32.1309 191.595 30.6455 191.595 27.7129V23.9678C191.595 21.0479 192.75 19.5498 194.985 19.5498C196.775 19.5498 198.032 20.8066 198.12 22.7363H201.789C201.688 18.7373 199.136 16.3125 195.086 16.3125C190.567 16.3125 187.926 19.1182 187.926 23.9678V27.7129C187.926 32.5625 190.567 35.3682 195.086 35.3682C199.136 35.3682 201.802 32.8926 201.802 29.0713V25.2627H194.718V27.9795H198.133V28.9951ZM207.893 16.6807V35H210.14V28.4238H213.936C217.516 28.4238 219.865 26.1006 219.865 22.5586C219.865 19.0039 217.542 16.6807 213.987 16.6807H207.893ZM210.14 18.6738H213.428C216.094 18.6738 217.592 20.0576 217.592 22.5586C217.592 25.0469 216.094 26.4307 213.428 26.4307H210.14V18.6738ZM238.804 27.3193V24.3613C238.804 19.2959 236.252 16.2998 232.088 16.2998C227.924 16.2998 225.372 19.2959 225.372 24.3613V27.3193C225.372 32.3848 227.924 35.3809 232.088 35.3809C236.252 35.3809 238.804 32.3848 238.804 27.3193ZM232.088 33.2607C229.308 33.2607 227.632 31.1279 227.632 27.3066V24.374C227.632 20.5527 229.308 18.4199 232.088 18.4199C234.868 18.4199 236.544 20.5527 236.544 24.374V27.3066C236.544 31.1279 234.868 33.2607 232.088 33.2607ZM247.663 35V28.7666L249.567 26.5068L255.737 35H258.517L251.078 24.7803L257.857 16.6807H255.242L247.828 25.7959H247.663V16.6807H245.466V35H247.663ZM275.133 32.9434H266.563V26.6465H274.663V24.6787H266.563V18.7373H275.133V16.6807H264.316V35H275.133V32.9434ZM288.803 27.7002L292.218 35H294.744L291.012 27.2432C293.094 26.5576 294.427 24.5898 294.427 22.1904C294.427 18.7881 292.155 16.6807 288.524 16.6807H282.379V35H284.588V27.7002H288.803ZM284.588 18.6738H288.321C290.771 18.6738 292.167 19.9688 292.167 22.2412C292.167 24.5264 290.745 25.8086 288.219 25.8086H284.588V18.6738ZM306.777 35.0762C308.034 35.0762 309.075 34.0225 309.075 32.7275C309.075 31.4453 308.034 30.3916 306.777 30.3916C305.52 30.3916 304.479 31.4453 304.479 32.7275C304.479 34.0225 305.52 35.0762 306.777 35.0762ZM325.868 33.2607C322.898 33.2607 321.349 31.2676 321.349 27.4717V24.209C321.349 20.4131 322.898 18.4199 325.856 18.4199C328.204 18.4199 329.842 20.083 329.918 22.5586H332.191C332.114 18.6484 329.728 16.2998 325.868 16.2998C321.565 16.2998 319.064 19.207 319.064 24.209V27.4717C319.064 32.4736 321.565 35.3809 325.868 35.3809C329.613 35.3809 332.178 32.9814 332.178 29.4395H329.918C329.855 31.8008 328.306 33.2607 325.868 33.2607ZM350.837 27.3193V24.3613C350.837 19.2959 348.286 16.2998 344.122 16.2998C339.958 16.2998 337.406 19.2959 337.406 24.3613V27.3193C337.406 32.3848 339.958 35.3809 344.122 35.3809C348.286 35.3809 350.837 32.3848 350.837 27.3193ZM344.122 33.2607C341.341 33.2607 339.666 31.1279 339.666 27.3066V24.374C339.666 20.5527 341.341 18.4199 344.122 18.4199C346.902 18.4199 348.578 20.5527 348.578 24.374V27.3066C348.578 31.1279 346.902 33.2607 344.122 33.2607ZM358.185 27.9668L358.071 20.5527H358.236L361.918 30.6963H363.67L367.351 20.5527H367.517L367.402 27.9668V35H369.395V16.6807H366.882L362.883 28.0557H362.718L358.693 16.6807H356.192V35H358.185V27.9668Z" fill="white"/>
<path d="M45.6493 20.1022C47.8028 32.058 39.8565 43.4958 27.9007 45.6493C15.9449 47.8028 4.50709 39.8565 2.3536 27.9007C0.200114 15.9449 8.14645 4.50709 20.1022 2.3536C32.058 0.200114 43.4958 8.14645 45.6493 20.1022Z" fill="url(#paint0_linear_1807_2754)"/>
<path d="M10.6956 30.9441C10.222 31.6237 10.3889 32.5587 11.0686 33.0324C11.7482 33.5061 12.6832 33.3391 13.1569 32.6594L10.6956 30.9441ZM18.2053 22.7924L18.9035 21.4648L17.7317 20.8485L16.9747 21.9347L18.2053 22.7924ZM25.3399 26.5446L24.6417 27.8722L25.8551 28.5102L26.5995 27.3591L25.3399 26.5446ZM34.5514 15.063L35.366 13.8034L32.8468 12.1743L32.0323 13.4339L34.5514 15.063ZM24.3783 14.3335L22.9248 14.7039L23.6655 17.611L25.1191 17.2407L24.3783 14.3335ZM33.439 13.5727L34.8926 13.2024L34.5222 11.7488L33.0687 12.1192L33.439 13.5727ZM34.2762 22.9331L34.6466 24.3866L37.5537 23.6459L37.1833 22.1923L34.2762 22.9331ZM44.1731 20.3681C46.1797 31.5086 38.7753 42.1665 27.6348 44.1731L28.1666 47.1256C40.9377 44.8252 49.4259 32.6074 47.1256 19.8363L44.1731 20.3681ZM27.6348 44.1731C16.4943 46.1797 5.83648 38.7753 3.82984 27.6348L0.877356 28.1666C3.1777 40.9377 15.3955 49.4259 28.1666 47.1256L27.6348 44.1731ZM3.82984 27.6348C1.82321 16.4943 9.22766 5.83648 20.3681 3.82984L19.8363 0.877356C7.06524 3.1777 -1.42298 15.3955 0.877356 28.1666L3.82984 27.6348ZM20.3681 3.82984C31.5086 1.82321 42.1665 9.22766 44.1731 20.3681L47.1256 19.8363C44.8252 7.06524 32.6074 -1.42298 19.8363 0.877356L20.3681 3.82984ZM13.1569 32.6594L19.4359 23.6501L16.9747 21.9347L10.6956 30.9441L13.1569 32.6594ZM17.5071 24.12L24.6417 27.8722L26.0381 25.217L18.9035 21.4648L17.5071 24.12ZM26.5995 27.3591L34.5514 15.063L32.0323 13.4339L24.0804 25.73L26.5995 27.3591ZM25.1191 17.2407L33.8094 15.0263L33.0687 12.1192L24.3783 14.3335L25.1191 17.2407ZM31.9855 13.9431L34.2762 22.9331L37.1833 22.1923L34.8926 13.2024L31.9855 13.9431Z" fill="white"/>
<defs>
<linearGradient id="paint0_linear_1807_2754" x1="19.6485" y1="2.00147" x2="4.36483" y2="41.2398" gradientUnits="userSpaceOnUse">
<stop stop-color="#FA00FF"/>
<stop offset="1" stop-color="#9105FF"/>
</linearGradient>
</defs>
</svg>
